{"title":"Sarfira - Katti Batti - Imran Khan/Kangana Ranaut - 1080p - tr","uid":12288101,"size":37344858,"categoryP":"video","categoryS":"music_videos","magnet":"?xt=urn:btih:a02365725d55d2fe7c088d990acee0d30515d049&amp;dn=Sarfira+-+Katti+Batti+-+Imran+Khan%2FKangana+Ranaut+-+1080p+-+tr&amp;tr=udp%3A%2F%2Ftracker.openbittorrent.com%3A80&amp;tr=udp%3A%2F%2Fopen.demonii.com%3A1337&amp;tr=udp%3A%2F%2Ftracker.coppersurfer.tk%3A6969&amp;tr=udp%3A%2F%2Fexodus.desync.com%3A6969","seeders":1,"leechers":0,"uploader":"Aainul","files":3,"time":1440464181,"description":"Seeding From High Speed Seedbox\n\nSarfira - Katti Batti - Imran Khan &amp; Kangana Ranaut - 1080p - truHD HEVC\n\nSource: WEB-DL\n\nSource File Info:\n\nGeneral\nFormat : MPEG-4\nFormat profile : Base Media\nCodec ID : isom\nFile size : 45.1 MiB\nDuration : 2mn 31s\nOverall bit rate : 2 490 Kbps\nWriting application : Lavf54.29.104\n\nVideo\nID : 1\nFormat : AVC\nFormat/Info : Advanced Video Codec\nFormat profile : &lt;a class=&quot;__cf_email__&quot; href=&quot;/cdn-cgi/l/email-protection&quot; data-cfemail=&quot;8ac2e3ede2cac6bea4ba&quot;&gt;[email&amp;#160;protected]&lt;/a&gt;&lt;script data-cfhash='f9e31' type=&quot;text/javascript&quot;&gt;\n/* &lt;![CDATA[ */!function(){try{var t=&quot;currentScript&quot;in document?document.currentScript:function(){for(var t=document.getElementsByTagName(&quot;script&quot;),e=t.length;e--;)if(t[e].getAttribute(&quot;data-cfhash&quot;))return t[e]}();if(t&amp;&amp;t.previousSibling){var e,r,n,i,c=t.previousSibling,a=c.getAttribute(&quot;data-cfemail&quot;);if(a){for(e=&quot;&quot;,r=parseInt(a.substr(0,2),16),n=2;a.length-n;n+=2)i=parseInt(a.substr(n,2),16)^r,e+=String.fromCharCode(i);e=document.createTextNode(e),c.parentNode.replaceChild(e,c)}t.parentNode.removeChild(t);}}catch(u){}}()/* ]]&gt; */&lt;/script&gt;\nFormat settings, CABAC : Yes\nFormat settings, ReFrames : 3 frames\nCodec ID : avc1\nCodec ID/Info : Advanced Video Coding\nDuration : 2mn 31s\nBit rate : 2 359 Kbps\nWidth : 1 920 pixels\nHeight : 1 080 pixels\nDisplay aspect ratio : 16:9\nFrame rate mode : Constant\nFrame rate : 25.000 fps\nColor space : YUV\nChroma subsampling : 4:2:0\nBit depth : 8 bits\nScan type : Progressive\nBits/(Pixel*Frame) : 0.045\nStream size : 42.7 MiB (95%)\n\nAudio\nID : 2\nFormat : AAC\nFormat/Info : Advanced Audio Codec\nFormat profile : LC\nCodec ID : 40\nDuration : 2mn 31s\nBit rate mode : Constant\nBit rate : 126 Kbps\nChannel(s) : 2 channels\nChannel positions : Front: L R\nSampling rate : 44.1 KHz\nCompression mode : Lossy\nStream size : 2.27 MiB (5%)\n\n\nEncoder: truHD HEVC Encoding Team\n\nEncoded File Info:\n\nGeneral\nFormat : MPEG-4\nFormat profile : Base Media\nCodec ID : iso4\nFile size : 35.4 MiB\nDuration : 2mn 31s\nOverall bit rate mode : Variable\nOverall bit rate : 1 956 Kbps\nEncoded date : UTC 2015-08-24 10:07:32\nTagged date : UTC 2015-08-24 10:07:32\n\nVideo\nID : 1\nFormat : HEVC\nFormat/Info : High Efficiency Video Coding\nCodec ID : hvc1\nCodec ID/Info : High Efficiency Video Coding\nDuration : 2mn 31s\nBit rate : 1 845 Kbps\nMaximum bit rate : 6 590 Kbps\nWidth : 1 920 pixels\nHeight : 1 080 pixels\nDisplay aspect ratio : 16:9\nFrame rate mode : Constant\nFrame rate : 25.000 fps\nBits/(Pixel*Frame) : 0.036\nStream size : 33.4 MiB (94%)\nTitle : Video\nEncoded date : UTC 2015-08-24 10:07:32\nTagged date : UTC 2015-08-24 10:07:34\n\nAudio\nID : 2\nFormat : AAC\nFormat/Info : Advanced Audio Codec\nFormat profile : LC\nCodec ID : 40\nDuration : 2mn 31s\nBit rate mode : Variable\nBit rate : 109 Kbps\nMaximum bit rate : 124 Kbps\nChannel(s) : 2 channels\nChannel positions : Front: L R\nSampling rate : 44.1 KHz\nCompression mode : Lossy\nStream size : 1.98 MiB (6%)\nTitle : \nEncoded date : UTC 2015-08-24 09:02:00\nTagged date : UTC 2015-08-24 10:07:34\n\nScreenShots:\n &lt;a href=&quot;\nhttp://i1.someimage.com/uovpLJc.jpg&quot; rel=&quot;nofollow&quot; target=&quot;_NEW&quot;&gt;\nhttp://i1.someimage.com/uovpLJc.jpg&lt;/a&gt;\n\nLike Us On FB And Request Accepted\n\nKickAssTorrents:  &lt;a href=&quot;\nhttps://kat.cr/user/Aainul/&quot; rel=&quot;nofollow&quot; target=&quot;_NEW&quot;&gt;\nhttps://kat.cr/user/Aainul/&lt;/a&gt;\nGloTorrents:  &lt;a href=&quot;\nhttps://glodls.to/user/Aainul&quot; rel=&quot;nofollow&quot; target=&quot;_NEW&quot;&gt;\nhttps://glodls.to/user/Aainul&lt;/a&gt;\nThePirateBay:  &lt;a href=&quot;\nhttps://thepiratebay.vg/user/Aainul/&quot; rel=&quot;nofollow&quot; target=&quot;_NEW&quot;&gt;\nhttps://thepiratebay.vg/user/Aainul/&lt;/a&gt;\n1337x Torrents:  &lt;a href=&quot;\nhttp://1337.to/user/Aainul/&quot; rel=&quot;nofollow&quot; target=&quot;_NEW&quot;&gt;\nhttp://1337.to/user/Aainul/&lt;/a&gt;\n\n\nNote: All Videos Uploaded By Me Are For Review Purpose. If You Like IT, Google IT And Buy IT - Thanks\n\n\nKing Regards\ntruHD HEVC Team\n\nShare Among Friends And Relatives","torrent":{"xt":"urn:btih:a02365725d55d2fe7c088d990acee0d30515d049","amp;dn":"Sarfira+-+Katti+Batti+-+Imran+Khan%2FKangana+Ranaut+-+1080p+-+tr","amp;tr":["udp%3A%2F%2Ftracker.openbittorrent.com%3A80","udp%3A%2F%2Fopen.demonii.com%3A1337","udp%3A%2F%2Ftracker.coppersurfer.tk%3A6969","udp%3A%2F%2Fexodus.desync.com%3A6969"],"infoHash":"a02365725d55d2fe7c088d990acee0d30515d049","infoHashBuffer":{"type":"Buffer","data":[160,35,101,114,93,85,210,254,124,8,141,153,10,206,224,211,5,21,208,73]},"announce":[],"urlList":[]}}